# xmcd CD database file
#
# Track frame offsets:
#	150
#	13180
#	24918
#	38370
#	48215
#	60957
#	72456
#	83175
#	97977
#	108440
#	120454
#	134241
#	144685
#	157722
#	167091
#	176414
#	188126
#	199494
#	209099
#	220748
#	232754
#	243315
#	252030
#	264058
#	274408
#	285762
#	298209
#	310877
#	322155
#	330485
#	342973
#
# Disc length: 4739 seconds
#
# Revision: 0
# Processed by: cddbd v1.4PL0 Copyright (c) Steve Scherf et al.
# Submitted via: Feurio! 1.65 - http://www.feurio.com
#
DISCID=bd12811f
DTITLE=Various Artist - Country Music
DYEAR=1900
DGENRE=Country
TTITLE0=Lynn Anderson - Rosegarden
TTITLE1=Donna Fargo - U. S. of America
TTITLE2=Willie Nelson - a Moment Isn't Take Your Love
TTITLE3=Dolly Parton - Release Me
TTITLE4=Kenny Rogers - Ruby Don't Take Your Love to Town
TTITLE5=Billie Jo Spears - Try a Little Kindness
TTITLE6=Johnny Cash - I Love You Because
TTITLE7=Kenny Rogers - for the Good Times
TTITLE8=Waylon Jennings - Burning Memories
TTITLE9=Oak Ridge Boys - Without God
TTITLE10=Billie Jo Spears - Mr. Walker, it's All Over
TTITLE11=Johnny Cash - Cold Cold Heart
TTITLE12=Don Williams - Where Do We Go From Here
TTITLE13=Lynn Anderson - Snowbird
TTITLE14=Willie Nelson - Building Heartaches
TTITLE15=Donna Fargo - Funny Face
TTITLE16=Willie Nelson - Is There Something On Your Mind
TTITLE17=Johnny Cash - Ballad Of A Teenage Queen
TTITLE18=Dolly Parton - Letter To Heaven
TTITLE19=Kenny Rogers - Reuben James
TTITLE20=Don Williams - Storybook Children
TTITLE21=Waylon Jennings - Mean Old Greyhound Bus
TTITLE22=Lynn Anderson - Stand By Your Man
TTITLE23=Kenny Rogers - She Even Woke Me Up To Say Goodbye
TTITLE24=Donna Fargo - The Happiest Girl In The Whole Usa
TTITLE25=Johnny Cash - Folsom Prison Blues
TTITLE26=Oak Ridge Boys - The Old Country Church
TTITLE27=Lynn Anderson - That'll Be The Day
TTITLE28=Waylon Jennings - Abilene
TTITLE29=Billie Jo Spears - You've Got The Power
TTITLE30=Willie Nelson - I Just Don't Understand
EXTD=
EXTT0=
EXTT1=
EXTT2=
EXTT3=
EXTT4=
EXTT5=
EXTT6=
EXTT7=
EXTT8=
EXTT9=
EXTT10=
EXTT11=
EXTT12=
EXTT13=
EXTT14=
EXTT15=
EXTT16=
EXTT17=
EXTT18=
EXTT19=
EXTT20=
EXTT21=
EXTT22=
EXTT23=
EXTT24=
EXTT25=
EXTT26=
EXTT27=
EXTT28=
EXTT29=
EXTT30=
PLAYORDER=
